# xmcd
#
# Track frame offsets:
#	150
#	18125
#	38811
#	65008
#	85370
#	114008
#	126982
#	151425
#
# Disc length: 2357 seconds
#
# Revision: 1
# Processed by: cddbd v1.5.2PL0 Copyright (c) Steve Scherf et al.
# Submitted via: EasyCDDAExtractor 16.0.9.1
#
DISCID=5e093308
DTITLE=Phương Nga - DHVN: Phương Nga Vol.2 - Ơi Cuộc Sống Mến Thương
DYEAR=2012
DGENRE=Country
TTITLE0=Tiếng Võng Ru Trưa (Lã Văn Cường)
TTITLE1=Hà Nội Đêm Mùa Đông (Hoàng Phúc Thắng)
TTITLE2=Biển Hát Chiều Nay (Hồng Đăng)
TTITLE3=Lòng Mẹ (Y Vân)
TTITLE4=Một Đời Người Một Rừng Cây (Trần Long Ẩn)
TTITLE5=Hoa Xuân Ca (Trịnh Công Sơn)
TTITLE6=Đêm Thành Phố Đầy Sao (Trần Long Ẩn)
TTITLE7=Ơi Cuộc Sống Mến Thương (Nguyễn Ngọc Thiện)
EXTD=
EXTT0=
EXTT1=
EXTT2=
EXTT3=
EXTT4=
EXTT5=
EXTT6=
EXTT7=
PLAYORDER=
